/* XPM */
static char * tile_xpm[] = {
"30 30 4 1",
" 	c #E8AD30",
".	c #FFFFFF",
"+	c #E3C077",
"@	c #715B2A",
"                             .",
"                             .",
"  +++++++++++++ +  +       @ .",
"                           @ .",
"  +                        @ .",
"                           @ .",
"  +                        @ .",
"                           @ .",
"                           @ .",
"                             .",
"                             .",
"                             .",
"                             .",
"                             .",
"                             .",
"                             .",
"                             .",
"                           @ .",
"                             .",
"                           @ .",
"                           @ .",
"                           @ .",
"                           @ .",
"                           @ .",
"                           @ .",
"                           @ .",
"                           @ .",
" @@@@@@@@  @ @           @ @ .",
"                             .",
".............................."};
